# xmcd CD database file
#
# Track frame offsets:
#	150
#	17212
#	36762
#	51480
#	66835
#	77142
#	97437
#	113740
#	134790
#	151435
#
# Disc length: 2226 seconds
#
# Revision: 1
# Processed by: cddbd v1.5.1PL0 Copyright (c) Steve Scherf et al.
# Submitted via: CDex 1.51
#
DISCID=9308b00a
DTITLE=Kris Kristofferson - Super Hits
DYEAR=1999
DGENRE=Pop
TTITLE0=Loving Her Was Easier (Than Anything I'll Ever Do Again)
TTITLE1=Me And Bobby McGee
TTITLE2=The Pligrim -Chapter 33
TTITLE3=For The Good Times
TTITLE4=Help Me Make It Through The Night
TTITLE5=Sunday Mornin' Comin' Down
TTITLE6=Just The Other Side Of Nowhere
TTITLE7=To Beat The Devil
TTITLE8=Casey's Last Ride
TTITLE9=Why Me
EXTD=YEAR: 1999
EXTT0=
EXTT1=
EXTT2=
EXTT3=
EXTT4=
EXTT5=
EXTT6=
EXTT7=
EXTT8=
EXTT9=
PLAYORDER=
